# xmcd
#
# Track frame offsets:
#	150
#	12592
#	29811
#	48009
#	69177
#	86367
#	101407
#	117748
#	132701
#	148303
#	161755
#	175107
#	191160
#
# Disc length: 2714 seconds
#
# Revision: 0
# Processed by: cddbd v1.5.2PL0 Copyright (c) Steve Scherf et al.
# Submitted via: EasyCDDAExtractor 9.1.3.1
#
DISCID=be0a980d
DTITLE=Dolly Parton - 9 To 5 And Odd Jobs
DYEAR=2009
DGENRE=Country
TTITLE0=9 To 5
TTITLE1=Hush-A-Bye Hard Times
TTITLE2=The House Of The Rising Sun
TTITLE3=Deportee (Plane Wreck At Los Gatos)
TTITLE4=Sing For The Common Man
TTITLE5=Working Girl
TTITLE6=Detroit City
TTITLE7=But You Know I Love You
TTITLE8=Dark As A Dungeon
TTITLE9=Poor Folks Town
TTITLE10=Everyday People
TTITLE11=9 to 5 (Love To Infinity Radio Mix)
TTITLE12=9 To 5 (Karaoke Mix 2009)
EXTD=
EXTT0=
EXTT1=
EXTT2=
EXTT3=
EXTT4=
EXTT5=
EXTT6=
EXTT7=
EXTT8=
EXTT9=
EXTT10=
EXTT11=
EXTT12=
PLAYORDER=
